<svg width="24" height="22" viewBox="0 0 24 22" fill="none" xmlns="http://www.w3.org/2000/svg">
<path d="M0.857143 4.25174H23.1429C23.6163 4.25174 24 3.86192 24 3.38099V1.20412C24 0.723197 23.6163 0.333374 23.1429 0.333374H0.857143C0.383732 0.333374 0 0.723197 0 1.20412V3.38099C0 3.86192 0.383732 4.25174 0.857143 4.25174ZM0.857143 12.9592H23.1429C23.6163 12.9592 24 12.5694 24 12.0885V9.9116C24 9.43068 23.6163 9.04086 23.1429 9.04086H0.857143C0.383732 9.04086 0 9.43068 0 9.9116V12.0885C0 12.5694 0.383732 12.9592 0.857143 12.9592ZM0.857143 21.6667H23.1429C23.6163 21.6667 24 21.2769 24 20.796V18.6191C24 18.1382 23.6163 17.7483 23.1429 17.7483H0.857143C0.383732 17.7483 0 18.1382 0 18.6191V20.796C0 21.2769 0.383732 21.6667 0.857143 21.6667Z" fill="white"/>
</svg>
