<svg width="190" height="24" viewBox="0 0 190 24" fill="none" xmlns="http://www.w3.org/2000/svg">
<path d="M76.4561 19.4754H64.2937L67.6828 13.9016H73.3977L70.672 8.98569L75.784 0.578291L89.1868 21.9427C89.6045 22.6086 89.1276 23.4754 88.3434 23.4754H79.2543C78.8922 23.4754 78.5586 23.2783 78.3829 22.9606L76.4561 19.4754Z" fill="white"/>
<path d="M13.8792 24C11.1502 24 8.48386 23.7923 5.8803 23.377C3.8389 23.0301 2.08398 22.5937 0.615556 22.0677C0.0380816 21.8609 -0.173574 21.1691 0.155601 20.65L2.65953 16.7013C2.91728 16.2948 3.42649 16.1325 3.87763 16.2973C5.24404 16.7964 6.74285 17.211 8.37407 17.541C10.3189 17.9126 12.1853 18.0984 13.9733 18.0984C15.5103 18.0984 16.6082 18 17.267 17.8033C17.9257 17.5847 18.2551 17.2678 18.2551 16.8525C18.2551 16.3716 17.8159 16.0109 16.9376 15.7705C16.0906 15.5301 14.6791 15.2678 12.7029 14.9836C10.1621 14.612 8.0447 14.2186 6.35082 13.8033C4.65694 13.3661 3.18263 12.6667 1.9279 11.7049C0.673176 10.7213 0.0458113 9.39891 0.0458113 7.7377C0.0458113 6.29508 0.626123 4.98361 1.78675 3.80328C2.94737 2.62295 4.67262 1.69399 6.9625 1.01639C9.28375 0.338797 12.0912 0 15.3849 0C17.6434 0 19.8548 0.174863 22.0192 0.524589C23.7443 0.782175 25.3048 1.14095 26.7008 1.6009C27.2855 1.79358 27.5193 2.48229 27.2034 3.01239L24.8834 6.90605C24.6404 7.31377 24.1454 7.4921 23.6952 7.34513C20.7477 6.3828 17.9462 5.90164 15.2908 5.90164C12.4363 5.90164 11.009 6.38251 11.009 7.34426C11.009 7.80328 11.4325 8.15301 12.2794 8.39344C13.1264 8.61202 14.5222 8.85246 16.4671 9.11475C18.9765 9.44262 21.0939 9.82514 22.8191 10.2623C24.5444 10.6776 26.0344 11.3661 27.2891 12.3279C28.5752 13.2896 29.2182 14.6011 29.2182 16.2623C29.2182 17.7049 28.6379 19.0164 27.4773 20.1967C26.3167 21.3552 24.5758 22.2842 22.2545 22.9836C19.9646 23.6612 17.1729 24 13.8792 24Z" fill="white"/>
<path fill-rule="evenodd" clip-rule="evenodd" d="M48.3792 0.524589C51.4219 0.524589 54.0725 0.874316 56.331 1.57377C58.5895 2.27322 60.3305 3.27869 61.5538 4.59016C62.7772 5.90164 63.3889 7.43169 63.3889 9.18033C63.3889 10.929 62.7772 12.459 61.5538 13.7705C60.3305 15.082 58.5895 16.0874 56.331 16.7869C54.0725 17.4863 51.4219 17.8361 48.3792 17.8361H43.6269V22.4754C43.6269 23.0277 43.1808 23.4754 42.6304 23.4754H33.5191C32.9687 23.4754 32.5226 23.0277 32.5226 22.4754V1.52459C32.5226 0.972306 32.9687 0.524589 33.5191 0.524589H48.3792ZM47.6734 11.8689C49.1791 11.8689 50.3083 11.6393 51.0612 11.1803C51.814 10.6995 52.1904 10.0328 52.1904 9.18033C52.1904 8.32787 51.814 7.67213 51.0612 7.21311C50.3083 6.73224 49.1791 6.4918 47.6734 6.4918H43.6269V11.8689H47.6734Z" fill="white"/>
<path d="M108.494 24C105.012 24 101.875 23.4973 99.0835 22.4918C96.2917 21.4645 94.0959 20.0437 92.4961 18.2295C90.9277 16.3934 90.1435 14.3169 90.1435 12C90.1435 9.68306 90.9277 7.61749 92.4961 5.80328C94.0959 3.96721 96.2917 2.54645 99.0835 1.54098C101.875 0.513661 105.012 0 108.494 0C111.693 0 114.548 0.393443 117.057 1.18033C119.07 1.81141 120.8 2.66744 122.248 3.74841C122.779 4.14512 122.708 4.93878 122.145 5.28888L116.884 8.56092C116.512 8.79258 116.035 8.74915 115.688 8.48071C113.776 7.00177 111.566 6.26229 109.059 6.26229C106.737 6.26229 104.871 6.78688 103.459 7.83607C102.048 8.86339 101.342 10.2514 101.342 12C101.342 13.7486 102.048 15.1475 103.459 16.1967C104.871 17.224 106.737 17.7377 109.059 17.7377C111.566 17.7377 113.776 16.9982 115.688 15.5193C116.035 15.2508 116.512 15.2074 116.884 15.4391L122.145 18.7111C122.708 19.0612 122.779 19.8549 122.248 20.2516C120.8 21.3326 119.07 22.1886 117.057 22.8197C114.548 23.6066 111.693 24 108.494 24Z" fill="white"/>
<path d="M153.859 18.6393C153.859 18.0871 153.413 17.6393 152.862 17.6393H137.391V14.623H150.322C150.872 14.623 151.318 14.1752 151.318 13.623V10.0492C151.318 9.4969 150.872 9.04918 150.322 9.04918H137.391V9H126.475V22.4754C126.475 23.0277 126.921 23.4754 127.471 23.4754H152.862C153.413 23.4754 153.859 23.0277 153.859 22.4754V18.6393Z" fill="white"/>
<path d="M126.475 6H153.247V1.52459C153.247 0.972305 152.801 0.524589 152.251 0.524589H127.471C126.921 0.524589 126.475 0.972306 126.475 1.52459V6Z" fill="white"/>
<path d="M179.182 23.4754C178.905 23.4754 178.641 23.3601 178.453 23.1571L173.055 17.3443L167.503 23.4754H157.306C156.411 23.4754 155.97 22.3824 156.613 21.7572L166.75 11.9016L156.996 2.23613C156.362 1.608 156.806 0.524589 157.696 0.524589H167.317C167.586 0.524589 167.844 0.633636 168.031 0.826961L173.337 6.29508L178.795 0.524589H188.28C189.177 0.524589 189.617 1.6191 188.973 2.24387L179.313 11.6066L189.697 21.7592C190.337 22.3853 189.896 23.4754 189.001 23.4754H179.182Z" fill="white"/>
</svg>
