<svg width="24" height="25" viewBox="0 0 24 25" fill="none" xmlns="http://www.w3.org/2000/svg">
<path opacity="0.6" d="M16.5277 12.1437L23.3362 5.33518C24.2213 4.51816 24.2213 3.15646 23.3362 2.33944L21.8383 0.841564C21.0213 -0.0435422 19.6596 -0.0435422 18.8426 0.841564L12.034 7.65007L5.15745 0.841564C4.34043 -0.0435422 2.97872 -0.0435422 2.1617 0.841564L0.66383 2.33944C-0.221277 3.15646 -0.221277 4.51816 0.66383 5.33518L7.47234 12.1437L0.66383 19.0203C-0.221277 19.8373 -0.221277 21.199 0.66383 22.016L2.1617 23.5139C2.97872 24.399 4.34043 24.399 5.15745 23.5139L12.034 16.7054L18.8426 23.5139C19.6596 24.399 21.0213 24.399 21.8383 23.5139L23.3362 22.016C24.2213 21.199 24.2213 19.8373 23.3362 19.0203L16.5277 12.1437Z" fill="white"/>
</svg>
